<?xml version="1.0" encoding="UTF-8"?>
<svg version="1.1" xmlns="http://www.w3.org/2000/svg" width="545" height="460">
<path d="M0 0 C179.85 0 359.7 0 545 0 C545 151.8 545 303.6 545 460 C365.15 460 185.3 460 0 460 C0 308.2 0 156.4 0 0 Z " fill="#283748" transform="translate(0,0)"/>
<path d="M0 0 C3.60745138 0.69672958 6.48119313 2.18840371 9.70703125 3.921875 C10.83995605 4.52894287 11.97288086 5.13601074 13.14013672 5.76147461 C14.36441626 6.42402371 15.58853366 7.08687248 16.8125 7.75 C18.0730346 8.42920103 19.33361452 9.10831797 20.59423828 9.78735352 C32.15467139 16.02931316 43.59875399 22.47223676 55 29 C56.40618913 29.80349196 57.81243396 30.60688644 59.21875 31.41015625 C61.51116199 32.72006367 63.80272476 34.03141515 66.09375 35.34375 C70.04448397 37.59524355 74.01610214 39.80780224 78 42 C78 46.41226534 76.77332673 49.31076897 75 53.23046875 C74.68838928 53.93421631 74.37677856 54.63796387 74.0557251 55.36303711 C73.0444813 57.64120406 72.02253711 59.91438244 71 62.1875 C70.30651318 63.74304358 69.61347933 65.29878919 68.92089844 66.85473633 C64.89242029 75.8842253 60.8057006 84.88426422 56.515625 93.79296875 C55.52131127 95.8969161 54.56569382 98.01968223 53.65380859 100.16064453 C51.86246881 104.35942451 49.94596983 108.49673791 48.0234375 112.63671875 C47.26287049 114.28183154 46.50245835 115.92701594 45.7421875 117.57226562 C44.55432142 120.14047152 43.36540294 122.70817074 42.17382812 125.2746582 C41.01638777 127.76890417 39.86332341 130.26513435 38.7109375 132.76171875 C38.3536557 133.52844406 37.9963739 134.29516937 37.62826538 135.08512878 C37.2976712 135.80300064 36.96707703 136.5208725 36.62646484 137.26049805 C36.3357309 137.88780319 36.04499695 138.51510834 35.74545288 139.16142273 C34.9658854 141.08413991 34.45596105 142.97825131 34 145 C33.34 145 32.68 145 32 145 C31.89429688 145.69351563 31.78859375 146.38703125 31.6796875 147.1015625 C30.89239184 150.45888078 29.61027929 153.26404189 28.125 156.375 C26.31763472 160.18045756 24.57372688 163.99245351 22.92871094 167.87060547 C20.7299223 172.91209718 18.37671679 177.88576282 16.0625 182.875 C12.01035663 191.58695967 12.01035663 191.58695967 8.07421875 200.3515625 C5.08447694 207.1215175 1.89786633 213.80256858 -1.25 220.5 C-1.92268005 221.93290862 -2.59528716 223.36585147 -3.26782227 224.79882812 C-5.17725667 228.8664928 -7.08833835 232.93338166 -9 237 C-9.48774902 238.03769531 -9.97549805 239.07539063 -10.47802734 240.14453125 C-12.64983202 244.76405644 -14.82434537 249.38228404 -17 254 C-11.72 254 -6.44 254 -1 254 C-0.67 252.35 -0.34 250.7 0 249 C0.81685641 246.71548028 1.67325043 244.44482583 2.5625 242.1875 C3.01753906 241.02605469 3.47257813 239.86460937 3.94140625 238.66796875 C4.46541016 237.34732422 4.46541016 237.34732422 5 236 C8.52514543 237.34622318 11.82144148 238.89467428 15.140625 240.6875 C16.11950684 241.21593506 17.09838867 241.74437012 18.10693359 242.28881836 C19.14414551 242.8535083 20.18135742 243.41819824 21.25 244 C22.32975098 244.58595947 23.40950195 245.17191895 24.52197266 245.77563477 C31.20072522 249.41899711 37.78490122 253.18286081 44.30737305 257.09716797 C54.98628613 263.44553906 66.04572218 269.15007153 77 275 C77 292.49 77 309.98 77 328 C34.1 328.33 -8.8 328.66 -53 329 C-55.97 335.6 -58.94 342.2 -62 349 C-63.92066761 353.0727697 -65.84737334 357.1368129 -67.8125 361.1875 C-68.71607072 363.05539655 -69.61843288 364.92387825 -70.51953125 366.79296875 C-70.90214111 367.5821167 -71.28475098 368.37126465 -71.67895508 369.18432617 C-73.51366614 373.09482749 -75.24567996 377.05277991 -77 381 C-110.33 381 -143.66 381 -178 381 C-177.10656817 376.53284086 -175.76463639 372.80385599 -173.9375 368.6875 C-173.65583984 368.04232422 -173.37417969 367.39714844 -173.08398438 366.73242188 C-172.3937257 365.15301642 -171.69746802 363.57623507 -171 362 C-170.34 362 -169.68 362 -169 362 C-168.84942139 360.72660767 -168.84942139 360.72660767 -168.69580078 359.42749023 C-167.9202781 355.6072927 -166.5922988 352.65385491 -164.8671875 349.16015625 C-164.55226349 348.51614365 -164.23733948 347.87213104 -163.91287231 347.20860291 C-162.90751613 345.15623418 -161.89172202 343.10925826 -160.875 341.0625 C-159.5573344 338.38797569 -158.24363769 335.71150741 -156.9296875 333.03515625 C-156.60055862 332.36648026 -156.27142975 331.69780426 -155.93232727 331.00886536 C-152.82191709 324.67517279 -149.84153185 318.28424066 -146.87475586 311.88235474 C-145.38695367 308.6808083 -143.88289345 305.48693614 -142.37890625 302.29296875 C-141.91904327 301.31588455 -141.91904327 301.31588455 -141.44989014 300.31906128 C-139.79971848 296.81350116 -138.14838751 293.30848741 -136.49707031 289.8034668 C-135.78577348 288.29347296 -135.07451086 286.783463 -134.36328125 285.2734375 C-134.00728851 284.51764908 -133.65129578 283.76186066 -133.28451538 282.98316956 C-131.06742975 278.27390933 -128.85696852 273.56160016 -126.65171814 268.8467865 C-125.20146379 265.74651182 -123.74909587 262.64722934 -122.29660034 259.54800415 C-121.60538355 258.07158765 -120.91519797 256.59468788 -120.22610474 255.11727905 C-119.26278292 253.05218425 -118.29582211 250.98882865 -117.328125 248.92578125 C-116.7805957 247.75442627 -116.23306641 246.58307129 -115.66894531 245.3762207 C-114.47407606 242.95904006 -113.25087556 240.6581962 -111.8984375 238.33422852 C-110.43811515 235.76946228 -109.2933428 233.47762334 -108.296875 230.7265625 C-105.40724879 223.27155219 -101.88354782 216.10338436 -98.44726562 208.88916016 C-97.26335541 206.40304527 -96.08442177 203.91461985 -94.90625 201.42578125 C-90.89424543 192.9682277 -86.82168371 184.54652351 -82.59906006 176.19186401 C-80.36487895 171.76755378 -78.26924836 167.29734388 -76.24609375 162.7734375 C-74.58894177 159.08510551 -72.87304392 155.4251454 -71.15698242 151.76391602 C-69.30183107 147.80079432 -67.45924607 143.83211053 -65.62756348 139.858078 C-64.46341436 137.33269794 -63.2971359 134.80830318 -62.13085938 132.28390503 C-61.54717511 131.01900639 -60.96448017 129.75365073 -60.3828125 128.48782349 C-59.55468409 126.68599723 -58.72270985 124.88594009 -57.890625 123.0859375 C-57.40625977 122.0345459 -56.92189453 120.9831543 -56.42285156 119.89990234 C-55.08049934 117.16406505 -53.58521083 114.60005906 -52 112 C-51.31817272 110.41079801 -50.67170027 108.80593332 -50.0625 107.1875 C-48.92396167 104.16618399 -47.66143278 101.2755195 -46.203125 98.3984375 C-43.54252394 93.14931001 -41.12483183 87.79302088 -38.6875 82.4375 C-35.00843715 74.37862961 -31.30679985 66.33235466 -27.53515625 58.31640625 C-26.40984391 55.88538799 -25.31913241 53.4498096 -24.24609375 50.99609375 C-21.04515268 43.76597477 -17.52173785 36.68415659 -14.06347656 29.57470703 C-10.87643057 23.0183548 -7.70791462 16.46448849 -4.78710938 9.78369141 C-3.31901057 6.45679008 -1.64931882 3.23973339 0 0 Z " fill="#FCFCFC" transform="translate(189,62)"/>
<path d="M0 0 C6.84270127 13.51241289 6.84270127 13.51241289 8.9375 18.375 C11.09833374 23.38249731 13.59703466 28.22023847 16.09545898 33.06591797 C18.1085659 37.02151367 19.77293608 40.97788277 21.28295898 45.1496582 C22.29380436 47.75816929 23.61203069 50.13716821 25 52.5625 C26.95647405 55.99142457 28.64477498 59.41855099 30.16943359 63.06079102 C31.77856392 66.81779343 33.55783388 70.49682996 35.3125 74.1875 C35.90635498 75.43998535 35.90635498 75.43998535 36.51220703 76.71777344 C39.16982156 82.30491433 41.89129224 87.85199771 44.7109375 93.359375 C45.92817612 95.85286988 47.01224714 98.38245079 48.09326172 100.93701172 C50.06022412 105.41219542 52.24349774 109.78905232 54.375 114.1875 C58.81086378 123.37990879 63.15915826 132.60828557 67.4375 141.875 C72.22485578 152.23854536 77.12821319 162.53947082 82.10498047 172.81323242 C86.73748417 182.39929749 91.23283323 192.04521852 95.6875 201.71484375 C98.05998706 206.85825082 100.43361449 211.9874312 103.04077148 217.0168457 C103.86390807 218.71863712 104.61711661 220.4539414 105.35571289 222.1940918 C107.13426248 226.37853015 109.12161725 230.45074706 111.125 234.53125 C111.51316895 235.32599731 111.90133789 236.12074463 112.30126953 236.9395752 C113.53258341 239.46050099 114.76601823 241.98037916 116 244.5 C117.62693411 247.8219754 119.2516348 251.14502937 120.875 254.46875 C121.24383301 255.21999146 121.61266602 255.97123291 121.99267578 256.74523926 C124.12707485 261.11585069 126.10516 265.52053175 128 270 C128.98357352 272.00812926 129.98308736 274.00854609 131 276 C132.83904907 279.60147109 134.54254346 283.21669604 136.11572266 286.94189453 C138.06310535 291.47431753 140.13529721 295.9518398 142.1875 300.4375 C142.6721875 301.49702881 143.156875 302.55655762 143.65625 303.64819336 C146.79378624 310.47016159 150.02186655 317.23297392 153.44995117 323.91381836 C155.48174326 327.88361045 157.26043575 331.89752765 159 336 C159.65129797 337.34090759 160.31513275 338.67592331 161 340 C162.23184535 342.38156767 163.3220436 344.75941015 164.37036133 347.23144531 C165.85290742 350.70408391 167.47002354 354.09563964 169.13671875 357.484375 C169.71357422 358.66644531 170.29042969 359.84851563 170.88476562 361.06640625 C171.79071518 362.91978793 172.69845193 364.77221669 173.6105957 366.62255859 C174.49959075 368.42807028 175.38077453 370.23742151 176.26171875 372.046875 C176.78725342 373.11776367 177.31278809 374.18865234 177.85424805 375.29199219 C179 378 179 378 179 381 C145.67 381 112.34 381 78 381 C74.37 373.08 70.74 365.16 67 357 C65.68 354.36 64.36 351.72 63 349 C62.28442893 347.45682174 61.5797326 345.90846333 60.89453125 344.3515625 C60.55099609 343.57425781 60.20746094 342.79695313 59.85351562 341.99609375 C59.50998047 341.21363281 59.16644531 340.43117188 58.8125 339.625 C58.11105036 338.03368957 57.40924483 336.44253596 56.70703125 334.8515625 C56.4025708 334.15885254 56.09811035 333.46614258 55.78442383 332.75244141 C55.21855852 331.48827049 54.61940805 330.2388161 54 329 C-10.35 328.505 -10.35 328.505 -76 328 C-76 310.51 -76 293.02 -76 275 C-72.473125 273.1025 -68.94625 271.205 -65.3125 269.25 C-54.57821528 263.45220862 -43.9683185 257.46086686 -33.39697266 251.37255859 C-29.02138177 248.86700023 -24.61631241 246.41380618 -20.21020508 243.96240234 C-16.78524459 242.04585807 -13.46075492 240.03938052 -10.1875 237.875 C-9.135625 237.25625 -8.08375 236.6375 -7 236 C-4 237 -4 237 -2.68359375 239.328125 C-2.27238281 240.29234375 -1.86117187 241.2565625 -1.4375 242.25 C-1.02371094 243.20390625 -0.60992187 244.1578125 -0.18359375 245.140625 C0.89746219 247.7522849 1.95024145 250.37560362 3 253 C7.62 253.33 12.24 253.66 17 254 C16.443125 252.7625 15.88625 251.525 15.3125 250.25 C13.74113972 246.72237985 12.24452574 243.1729078 10.78515625 239.59765625 C7.7765841 232.36044583 4.46203662 225.27666803 1.125 218.1875 C0.53231481 216.92393939 -0.06013372 215.66026775 -0.65234375 214.39648438 C-1.83813206 211.8667266 -3.02497644 209.3374686 -4.21264648 206.80859375 C-9.08287886 196.43484388 -13.91682424 186.04497957 -18.6875 175.625 C-19.14705078 174.62339844 -19.60660156 173.62179688 -20.08007812 172.58984375 C-22.10246981 168.17577917 -24.11385303 163.75839931 -26.07421875 159.31640625 C-28.01052393 154.94224349 -30.05928698 150.62671601 -32.125 146.3125 C-35.9784548 138.22396415 -39.71148213 130.08507203 -43.40429688 121.92211914 C-45.77655668 116.68121988 -48.17535293 111.45514603 -50.625 106.25 C-53.11383404 100.94669009 -55.51264541 95.61070555 -57.875 90.25 C-61.72989657 81.51192141 -65.80714736 72.88730226 -69.91845703 64.26757812 C-71.61894268 60.70231612 -73.31482884 57.13502748 -75 53.5625 C-75.556875 52.38816406 -76.11375 51.21382812 -76.6875 50.00390625 C-77.73399897 47.60879403 -78.41859467 45.52089473 -79 43 C-77.96746094 42.42894531 -76.93492187 41.85789063 -75.87109375 41.26953125 C-66.2375505 35.93361681 -56.63540909 30.54465016 -47.05371094 25.11621094 C-41.81979654 22.15293005 -36.57943473 19.20189304 -31.328125 16.26953125 C-30.21961182 15.65045898 -29.11109863 15.03138672 -27.96899414 14.39355469 C-25.84654825 13.2092422 -23.72338607 12.0262121 -21.59936523 10.84472656 C-16.00029944 7.72013871 -10.49132416 4.50648424 -5.06958008 1.08178711 C-3 0 -3 0 0 0 Z " fill="#FCFCFC" transform="translate(356,62)"/>
<path d="M0 0 C1.73238541 0.82974107 3.43247981 1.72900751 5.1015625 2.6796875 C6.06481445 3.22077148 7.02806641 3.76185547 8.02050781 4.31933594 C9.00374023 4.87395508 9.98697266 5.42857422 11 6 C12.85947427 7.00724226 14.72144606 8.00988806 16.5859375 9.0078125 C29.04942142 15.71390615 41.40412497 22.57921184 53.66259766 29.65283203 C57.20670739 31.69548897 60.75957828 33.72272297 64.3125 35.75 C66.20833333 36.83333333 68.10416667 37.91666667 70 39 C68.70098541 42.89704377 67.36918065 43.18864367 63.8046875 45.1171875 C62.70785645 45.71748779 61.61102539 46.31778809 60.48095703 46.9362793 C59.27897724 47.58253048 58.07699141 48.22877043 56.875 48.875 C55.64246725 49.5468349 54.41053937 50.21978061 53.17919922 50.89379883 C51.29315873 51.9259807 49.40676341 52.95744592 47.51846313 53.98548889 C41.6869826 57.16040398 35.90129086 60.41331657 30.125 63.6875 C29.20066162 64.20691162 28.27632324 64.72632324 27.32397461 65.26147461 C22.54300158 67.95478547 17.80748606 70.70472618 13.11328125 73.546875 C12.1598584 74.11575439 11.20643555 74.68463379 10.22412109 75.27075195 C8.41336461 76.35381088 6.61218771 77.45310827 4.82275391 78.57104492 C-1.13318279 82.10890216 -1.13318279 82.10890216 -5.078125 81.61328125 C-6.52445313 80.81470703 -6.52445313 80.81470703 -8 80 C-8.61866943 79.66154053 -9.23733887 79.32308105 -9.87475586 78.97436523 C-12.00843096 77.7773758 -14.09827651 76.5228542 -16.1875 75.25 C-24.88128117 69.99970159 -33.77327303 65.17719332 -42.7421875 60.4140625 C-43.32396255 60.10488892 -43.90573761 59.79571533 -44.50514221 59.47717285 C-45.09254684 59.16501831 -45.67995148 58.85286377 -46.28515625 58.53125 C-46.87699707 58.21671875 -47.46883789 57.9021875 -48.07861328 57.578125 C-49.2719285 56.94497705 -50.46593537 56.31313091 -51.66064453 55.68261719 C-60.32703447 51.1058508 -68.71321528 46.23203487 -77 41 C-75.57377172 36.72131515 -72.47353956 35.759817 -68.6875 33.75 C-67.90713379 33.325979 -67.12676758 32.90195801 -66.32275391 32.46508789 C-63.55440521 30.9654995 -60.77777544 29.4820517 -58 28 C-55.7121413 26.77492311 -53.42438608 25.54965296 -51.13671875 24.32421875 C-47.49630439 22.37486752 -43.85526063 20.42671434 -40.21240234 18.48193359 C-33.71035937 15.0080647 -27.23034606 11.50240974 -20.8125 7.875 C-20.18867432 7.52381104 -19.56484863 7.17262207 -18.92211914 6.81079102 C-16.331557 5.34627994 -13.76303643 3.85622435 -11.21875 2.3125 C-10.4246875 1.838125 -9.630625 1.36375 -8.8125 0.875 C-8.17957031 0.48054687 -7.54664063 0.08609375 -6.89453125 -0.3203125 C-4.25749087 -1.26638472 -2.69825055 -0.70938546 0 0 Z " fill="#FBFBFB" transform="translate(276,10)"/>
<path d="M0 0 C0.79100098 0.45141357 1.58200195 0.90282715 2.39697266 1.36791992 C3.30092773 1.88153076 4.20488281 2.3951416 5.13623047 2.92431641 C6.10141602 3.47676025 7.06660156 4.0292041 8.06103516 4.59838867 C10.12610591 5.77292659 12.19121109 6.94740397 14.25634766 8.12182617 C15.3162793 8.72607422 16.37621094 9.33032227 17.46826172 9.95288086 C22.61838109 12.88665144 27.77697542 15.8053781 32.93603516 18.72338867 C33.85046387 19.24199463 34.76489258 19.76060059 35.70703125 20.29492188 C41.1747082 23.3900869 46.67189696 26.42506549 52.19140625 29.42675781 C55.2684383 31.10319522 58.32913466 32.80077937 61.37353516 34.53588867 C62.89527344 35.3944043 62.89527344 35.3944043 64.44775391 36.27026367 C65.18638672 36.77041992 65.92501953 37.27057617 66.68603516 37.78588867 C66.68603516 38.44588867 66.68603516 39.10588867 66.68603516 39.78588867 C65.19580078 40.87988281 65.19580078 40.87988281 63.09228516 42.07104492 C62.31771973 42.51440186 61.5431543 42.95775879 60.74511719 43.41455078 C59.90062012 43.88771729 59.05612305 44.36088379 58.18603516 44.84838867 C57.31962402 45.34153564 56.45321289 45.83468262 55.56054688 46.34277344 C52.94008137 47.83170705 50.31395344 49.31015687 47.68603516 50.78588867 C46.32396819 51.55396216 44.96198103 52.32217721 43.60009766 53.09057617 C41.04059079 54.53240876 38.47894858 55.97037881 35.91650391 57.40698242 C30.97498675 60.18147911 26.04750131 62.98038333 21.12353516 65.78588867 C20.23424316 66.29071777 19.34495117 66.79554688 18.42871094 67.31567383 C14.30206089 69.66952778 10.21062168 72.0553973 6.18994141 74.58666992 C5.50810791 75.01270508 4.82627441 75.43874023 4.1237793 75.87768555 C2.87119065 76.66676747 1.62620412 77.46810709 0.39086914 78.28393555 C-2.11902673 79.86273511 -3.70276106 80.8507473 -6.70898438 80.53173828 C-9.44026022 79.74972819 -11.56675643 78.72061848 -14.02490234 77.30151367 C-14.92829346 76.78500244 -15.83168457 76.26849121 -16.76245117 75.73632812 C-17.72820068 75.17518311 -18.6939502 74.61403809 -19.68896484 74.03588867 C-21.76308936 72.84692219 -23.83731087 71.65812489 -25.91162109 70.46948242 C-26.97268066 69.85830566 -28.03374023 69.24712891 -29.12695312 68.61743164 C-34.1124384 65.75232435 -39.11929231 62.92536629 -44.12646484 60.09838867 C-45.07432861 59.56189697 -46.02219238 59.02540527 -46.9987793 58.47265625 C-51.50461305 55.92459658 -56.0171099 53.39010546 -60.54833984 50.88745117 C-61.77460083 50.21008911 -61.77460083 50.21008911 -63.02563477 49.51904297 C-64.5348264 48.68725566 -66.04529958 47.85778697 -67.55737305 47.03125 C-71.61974803 44.79434497 -75.49269558 42.41487423 -79.31396484 39.78588867 C-78.06703704 36.04510525 -77.08619654 35.809048 -73.69677734 33.95776367 C-72.71080566 33.41289307 -71.72483398 32.86802246 -70.70898438 32.30664062 C-69.62987793 31.72229248 -68.55077148 31.13794434 -67.43896484 30.53588867 C-66.32505371 29.92253662 -65.21114258 29.30918457 -64.06347656 28.67724609 C-61.69316282 27.37236639 -59.32140621 26.07063974 -56.94677734 24.77368164 C-52.24040589 22.20153993 -47.54995129 19.60103655 -42.86083984 16.99755859 C-40.58660796 15.73534043 -38.31057276 14.47636577 -36.03271484 13.22070312 C-30.82173607 10.33936973 -25.65247507 7.41821105 -20.56396484 4.32495117 C-19.25468018 3.53544067 -19.25468018 3.53544067 -17.91894531 2.72998047 C-16.31441039 1.75522313 -14.71889574 0.76539176 -13.13476562 -0.2421875 C-12.43335449 -0.66733643 -11.73194336 -1.09248535 -11.00927734 -1.53051758 C-10.11233154 -2.09428101 -10.11233154 -2.09428101 -9.19726562 -2.66943359 C-5.73319387 -3.67129308 -3.0331751 -1.59147286 0 0 Z " fill="#FCFCFB" transform="translate(279.31396484375,245.214111328125)"/>
<path d="M0 0 C16.5 0 33 0 50 0 C49.10550545 4.47247273 47.76641425 8.08285548 45.875 12.1640625 C45.56804199 12.83795013 45.26108398 13.51183777 44.94482422 14.20614624 C43.96815854 16.34806419 42.98441824 18.48663552 42 20.625 C41.01690031 22.77108162 40.035298 24.91783406 39.05517578 27.0652771 C38.44619676 28.39841769 37.83526807 29.7306698 37.22216797 31.06192017 C36.01860827 33.68761798 34.91438248 36.25685257 34 39 C17.17 39 0.34 39 -17 39 C-16.2986694 35.49334698 -15.86515196 33.35429585 -14.41772461 30.3112793 C-13.93064026 29.27674622 -13.93064026 29.27674622 -13.43371582 28.22131348 C-13.09336304 27.51277222 -12.75301025 26.80423096 -12.40234375 26.07421875 C-12.08881958 25.41087524 -11.77529541 24.74753174 -11.45227051 24.06408691 C-10.28675682 21.60233851 -9.11156012 19.14518391 -7.9375 16.6875 C-5.318125 11.180625 -2.69875 5.67375 0 0 Z " fill="#FBFBFA" transform="translate(144,404)"/>
<path d="M0 0 C6.9048238 -0.15206382 13.80921647 -0.25717845 20.71533203 -0.32958984 C23.06478002 -0.35977339 25.41411524 -0.40072541 27.76318359 -0.45263672 C31.13928016 -0.52537898 34.51388816 -0.55944133 37.890625 -0.5859375 C39.46738007 -0.63238907 39.46738007 -0.63238907 41.07598877 -0.67977905 C43.84312011 -0.68105774 46.30364245 -0.62221949 49 0 C51.56713867 2.76928711 51.56713867 2.76928711 53 6 C53.37648682 6.733396 53.75297363 7.46679199 54.14086914 8.22241211 C54.43598389 8.90053955 54.73109863 9.57866699 55.03515625 10.27734375 C55.36966797 11.03853516 55.70417969 11.79972656 56.04882812 12.58398438 C56.38333984 13.36064453 56.71785156 14.13730469 57.0625 14.9375 C57.40087891 15.71029297 57.73925781 16.48308594 58.08789062 17.27929688 C59.63573488 20.82107591 61.15910728 24.37281374 62.671875 27.9296875 C63.8986996 30.89074627 63.8986996 30.89074627 65.1875 33.1875 C66 35 66 35 66 39 C59.05829978 39.05058729 52.11664685 39.08568579 45.17480469 39.10986328 C42.81183089 39.11993924 40.44886961 39.13360029 38.0859375 39.15087891 C34.69528112 39.17505724 31.30478916 39.18646699 27.9140625 39.1953125 C26.85256989 39.20563507 25.79107727 39.21595764 24.69741821 39.22659302 C23.71655243 39.22674408 22.73568665 39.22689514 21.72509766 39.22705078 C20.42603989 39.23371262 20.42603989 39.23371262 19.10073853 39.24050903 C17 39 17 39 15 37 C14.28817365 35.16958939 13.58343609 33.33605098 12.91796875 31.48828125 C11.8409426 28.56885292 10.68194449 25.69104948 9.5 22.8125 C9.0978125 21.82894531 8.695625 20.84539062 8.28125 19.83203125 C7.03253023 17.07190372 5.55980769 14.59282016 4 12 C3.23235764 10.28756705 2.50171231 8.55797638 1.8125 6.8125 C1.46832031 5.95269531 1.12414062 5.09289062 0.76953125 4.20703125 C0 2 0 2 0 0 Z " fill="#FBFBFA" transform="translate(352,404)"/>
<path d="M0 0 C2.02558881 3.34939881 2.21738987 5.86962551 2.125 9.75 C2.10695313 10.73484375 2.08890625 11.7196875 2.0703125 12.734375 C2.03550781 13.85585937 2.03550781 13.85585937 2 15 C-0.8731967 12.28014807 -2.49273059 9.69281006 -4 6 C-3.875 3.75 -3.875 3.75 -3 2 C-2.01 1.34 -1.02 0.68 0 0 Z " fill="#202E3E" transform="translate(402,146)"/>
<path d="M0 0 C0.66 0.33 1.32 0.66 2 1 C1.65066406 1.45890625 1.30132812 1.9178125 0.94140625 2.390625 C0.48636719 3.00421875 0.03132813 3.6178125 -0.4375 4.25 C-0.88996094 4.85328125 -1.34242188 5.4565625 -1.80859375 6.078125 C-3.03900997 8.06292756 -3.56112668 9.71987655 -4 12 C-5.5625 9.1875 -5.5625 9.1875 -7 6 C-6 3 -6 3 -3.0625 1.25 C-2.051875 0.8375 -1.04125 0.425 0 0 Z " fill="#DDE1E1" transform="translate(284,101)"/>
<path d="M0 0 C-0.33 2.31 -0.66 4.62 -1 7 C-1.99 7 -2.98 7 -4 7 C-5.4606285 4.35261084 -6 3.10551666 -6 0 C-3 -1 -3 -1 0 0 Z " fill="#213242" transform="translate(538,433)"/>
<path d="M0 0 C0.33 0 0.66 0 1 0 C1.02705729 1.77074917 1.04642195 3.54161711 1.0625 5.3125 C1.07410156 6.29863281 1.08570313 7.28476563 1.09765625 8.30078125 C1 11 1 11 0 14 C-0.66 14 -1.32 14 -2 14 C-3.55577239 8.34264585 -2.24281523 5.20333134 0 0 Z " fill="#202E3F" transform="translate(429,200)"/>
<path d="M0 0 C-0.70554068 3.66881155 -2.27735506 6.70450534 -4 10 C-4.66 10 -5.32 10 -6 10 C-6.33663062 6.29706315 -6.47736015 4.60465619 -4.125 1.625 C-2 0 -2 0 0 0 Z " fill="#1F2C3B" transform="translate(352,278)"/>
<path d="M0 0 C2.39763185 2.39763185 2.34280586 3.33273498 2.625 6.625 C2.69976562 7.44226563 2.77453125 8.25953125 2.8515625 9.1015625 C2.90054687 9.72804688 2.94953125 10.35453125 3 11 C1.68 11 0.36 11 -1 11 C-1.14285714 3.57142857 -1.14285714 3.57142857 0 0 Z " fill="#354553" transform="translate(360,423)"/>
<path d="M0 0 C0.99 0 1.98 0 3 0 C2.67 2.97 2.34 5.94 2 9 C1.01 8.67 0.02 8.34 -1 8 C-1.625 5.125 -1.625 5.125 -2 2 C-1.34 1.34 -0.68 0.68 0 0 Z " fill="#202F40" transform="translate(472,299)"/>
<path d="M0 0 C0.99 0.33 1.98 0.66 3 1 C2.67 3.31 2.34 5.62 2 8 C1.01 7.67 0.02 7.34 -1 7 C-1.33 5.02 -1.66 3.04 -2 1 C-1.34 0.67 -0.68 0.34 0 0 Z " fill="#1F2E3E" transform="translate(383,111)"/>
<path d="M0 0 C0.33 1.32 0.66 2.64 1 4 C1.66 4 2.32 4 3 4 C3 5.65 3 7.3 3 9 C1.02 9 -0.96 9 -3 9 C-2.01 6.03 -1.02 3.06 0 0 Z " fill="#3D4C5A" transform="translate(266,108)"/>
<path d="M0 0 C2.15377564 2.62198774 3.40072174 4.64404172 4 8 C2.02 8.33 0.04 8.66 -2 9 C-1.34 6.03 -0.68 3.06 0 0 Z " fill="#3E4B59" transform="translate(352,406)"/>
<path d="M0 0 C2.97 0 5.94 0 9 0 C8.67 1.32 8.34 2.64 8 4 C5.36 3.67 2.72 3.34 0 3 C0 2.01 0 1.02 0 0 Z " fill="#1E2C3C" transform="translate(251,93)"/>
<path d="M0 0 C0.66 0.33 1.32 0.66 2 1 C-1.82104824 5.49535087 -7.19112438 8.29589386 -13 9 C-10.59497637 6.36479259 -7.9814151 4.59697057 -4.9375 2.75 C-4.05964844 2.20859375 -3.18179687 1.6671875 -2.27734375 1.109375 C-1.52582031 0.74328125 -0.77429688 0.3771875 0 0 Z " fill="#4A5864" transform="translate(342,286)"/>
<path d="M0 0 C0.33 0 0.66 0 1 0 C1.36637589 6.35051546 1.36637589 6.35051546 -0.375 9.4375 C-2 11 -2 11 -4 11 C-3.52269162 9.5410574 -3.04308958 8.08286504 -2.5625 6.625 C-2.29566406 5.81289062 -2.02882812 5.00078125 -1.75390625 4.1640625 C-1 2 -1 2 0 0 Z " fill="#495663" transform="translate(207,238)"/>
<path d="M0 0 C1.98 0 3.96 0 6 0 C6 1.32 6 2.64 6 4 C4.35 4 2.7 4 1 4 C0.67 2.68 0.34 1.36 0 0 Z " fill="#213041" transform="translate(283,245)"/>
<path d="M0 0 C0.33 0 0.66 0 1 0 C1.33 2.97 1.66 5.94 2 9 C1.01 9.495 1.01 9.495 0 10 C-0.99 9.34 -1.98 8.68 -3 8 C-2.01 5.36 -1.02 2.72 0 0 Z " fill="#192735" transform="translate(187,423)"/>
<path d="M0 0 C2.97 0.495 2.97 0.495 6 1 C5.67 2.32 5.34 3.64 5 5 C3.35 4.67 1.7 4.34 0 4 C0 2.68 0 1.36 0 0 Z " fill="#1F2D3E" transform="translate(219,308)"/>
<path d="M0 0 C6.75 0.875 6.75 0.875 9 2 C9 2.99 9 3.98 9 5 C5.22454612 3.90931332 2.52956528 3.0916909 0 0 Z " fill="#3B4855" transform="translate(316,266)"/>
<path d="M0 0 C2.64 0 5.28 0 8 0 C7.67 1.32 7.34 2.64 7 4 C4.69 3.34 2.38 2.68 0 2 C0 1.34 0 0.68 0 0 Z " fill="#1C2839" transform="translate(315,263)"/>
<path d="M0 0 C0.33 0.99 0.66 1.98 1 3 C1.66 3 2.32 3 3 3 C3.1875 5.875 3.1875 5.875 3 9 C2.01 9.66 1.02 10.32 0 11 C0 7.37 0 3.74 0 0 Z " fill="#1D2C3D" transform="translate(144,144)"/>
<path d="M0 0 C0.66 0.33 1.32 0.66 2 1 C0.35 2.98 -1.3 4.96 -3 7 C-3.99 6.67 -4.98 6.34 -6 6 C-5 3 -5 3 -2.5625 1.25 C-1.716875 0.8375 -0.87125 0.425 0 0 Z " fill="#DFE3E3" transform="translate(205,45)"/>
<path d="M0 0 C0.99 0.33 1.98 0.66 3 1 C3.1875 3.375 3.1875 3.375 3 6 C2.01 6.66 1.02 7.32 0 8 C0 5.36 0 2.72 0 0 Z " fill="#1D2C3D" transform="translate(323,211)"/>
<path d="M0 0 C3.125 -0.1875 3.125 -0.1875 6 0 C6.33 0.99 6.66 1.98 7 3 C4.03 3 1.06 3 -2 3 C-1.34 2.01 -0.68 1.02 0 0 Z " fill="#1D2939" transform="translate(325,63)"/>
<path d="M0 0 C0.99 0.33 1.98 0.66 3 1 C3 2.98 3 4.96 3 7 C2.01 7 1.02 7 0 7 C0 4.69 0 2.38 0 0 Z " fill="#213040" transform="translate(341,249)"/>
<path d="M0 0 C0.66 0 1.32 0 2 0 C1.37240135 2.92879371 0.41377341 5.36095629 -1 8 C-1.66 8 -2.32 8 -3 8 C-1.125 2.25 -1.125 2.25 0 0 Z " fill="#374656" transform="translate(189,278)"/>
<path d="M0 0 C2.31 0.33 4.62 0.66 7 1 C7.33 2.32 7.66 3.64 8 5 C4.62496331 3.8141763 2.35277269 2.72426311 0 0 Z " fill="#414F5D" transform="translate(295,254)"/>
<path d="M0 0 C0.33 0.66 0.66 1.32 1 2 C1.66 2.33 2.32 2.66 3 3 C1.35 4.65 -0.3 6.3 -2 8 C-2.33 7.34 -2.66 6.68 -3 6 C-2.06553465 3.96855359 -1.06775224 1.96466413 0 0 Z " fill="#485563" transform="translate(246,153)"/>
<path d="M0 0 C1.98 0 3.96 0 6 0 C6 1.65 6 3.3 6 5 C5.01 4.67 4.02 4.34 3 4 C3 3.01 3 2.02 3 1 C2.01 0.67 1.02 0.34 0 0 Z " fill="#1F2C3E" transform="translate(299,254)"/>
<path d="M0 0 C1.0625 1.8125 1.0625 1.8125 2 4 C1.67 4.99 1.34 5.98 1 7 C0.67 6.34 0.34 5.68 0 5 C-0.66 5 -1.32 5 -2 5 C-2 3.68 -2 2.36 -2 1 C-1.34 0.67 -0.68 0.34 0 0 Z " fill="#1D2A3A" transform="translate(205,248)"/>
</svg>
