<svg width="440" height="360" viewBox="0 0 440 360" fill="none" xmlns="http://www.w3.org/2000/svg">
<mask id="mask0_31_308" style="mask-type:alpha" maskUnits="userSpaceOnUse" x="0" y="0" width="440" height="360">
<rect width="440" height="360" fill="#D9D9D9"/>
</mask>
<g mask="url(#mask0_31_308)">
<path d="M220 65L152 33.5L220 0L288.5 33.5L220 65Z" fill="#1C3B8C"/>
<path d="M197 210V270C151.309 270 125.691 270 80 270V210H197Z" fill="#1C3B8C"/>
<path d="M145.344 47.8184L213.317 79.5147C156.557 201.237 139.26 237.786 82.5002 359.509L0.000170639 359.509L145.344 47.8184Z" fill="#1C3B8C"/>
<path d="M366 253V313C317.966 313 291.034 313 243 313V253H366Z" fill="#1C3B8C"/>
<path d="M294.642 47.7898L226.669 79.4862L357.5 359.5L440.119 359.766L294.642 47.7898Z" fill="#1C3B8C"/>
<path d="M244 232.5L197 195V270L244 232.5Z" fill="#1C3B8C"/>
<path d="M196 290.5L243 253V328L196 290.5Z" fill="#1C3B8C"/>
<path d="M244 254V313C243.219 313 242.781 313 242 313V254H244Z" fill="#1C3B8C"/>
<path d="M198 210V269C197.219 269 196.781 269 196 269V210H198Z" fill="#1C3B8C"/>
</g>
</svg>
